<svg width="17" height="10" viewBox="0 0 17 10" fill="none" xmlns="http://www.w3.org/2000/svg">
<path d="M9.33 0.12L6.096 5.346V9H3.372V5.388L2.5332e-07 0.12H2.874L4.782 3.174L6.66 0.12H9.33ZM14.3554 9.12C12.5714 9.12 11.2234 8.742 10.3114 7.986C9.40338 7.226 8.94938 6.092 8.94938 4.584C8.94938 3.624 9.15738 2.802 9.57338 2.118C9.99338 1.43 10.6114 0.906 11.4274 0.546C12.2474 0.181999 13.2494 -7.15256e-07 14.4334 -7.15256e-07C15.1614 -7.15256e-07 15.8374 0.0639994 16.4614 0.192V2.37C15.8494 2.258 15.2514 2.202 14.6674 2.202C13.6674 2.202 12.9394 2.396 12.4834 2.784C12.0274 3.168 11.7994 3.76 11.7994 4.56C11.7994 5.364 12.0194 5.958 12.4594 6.342C12.9034 6.726 13.6094 6.918 14.5774 6.918C15.1534 6.918 15.7814 6.84 16.4614 6.684V8.868C16.1534 8.944 15.8134 9.004 15.4414 9.048C15.0734 9.096 14.7114 9.12 14.3554 9.12Z" fill="#000000"/>
</svg>